<svg width="441" height="449" viewBox="0 0 441 449" fill="none" xmlns="http://www.w3.org/2000/svg">
<path fill-rule="evenodd" clip-rule="evenodd" d="M227.374 185.585C191.811 221.109 109.495 191.417 73.9314 155.894H73.9636C56.8867 138.828 47.293 115.683 47.293 91.5487C47.293 67.4145 56.8867 44.2689 73.9636 27.2035C91.0406 10.138 114.202 0.550781 138.352 0.550781C162.503 0.550781 185.664 10.138 202.741 27.2034C238.208 62.727 262.938 150.062 227.374 185.585ZM428.845 188.918C421.107 222.508 424.508 257.629 436.116 290.172C439.322 299.021 440.975 308.358 441.001 317.769C441.001 373.125 384.947 448.57 315.786 448.57C283.559 448.57 242.063 432.17 206.951 409.051C185.035 394.764 159.106 387.89 132.986 389.445C130.745 389.622 128.473 389.622 126.2 389.622H126.199C92.9928 389.622 61.1464 376.441 37.6646 352.978C14.1828 329.515 0.98865 297.692 0.984375 264.508C0.984375 220.285 53.7496 190.899 54.1848 190.803C74.8172 185.865 102.159 192.83 129.993 199.919C169.731 210.041 210.47 220.418 234.115 196.78C253.735 177.173 258.749 146.596 254.057 115.76C248.463 78.9477 275.95 45.019 313.207 44.7773H317.027C334.487 45.2287 351.628 49.5521 367.211 57.4349C382.794 65.3177 396.429 76.563 407.13 90.3572C417.831 104.151 425.33 120.15 429.086 137.196C432.841 154.241 432.759 171.908 428.845 188.918Z" fill="#404B96"/>
</svg>
