<svg width="62" height="62" viewBox="0 0 62 62" fill="none" xmlns="http://www.w3.org/2000/svg">
<path opacity="0.5" d="M28.8874 39.6853L17.8057 28.6035C15.5938 26.3917 12.0458 26.2736 9.69168 28.3333L7.10682 30.6449C7.06308 30.6779 6.97559 30.8991 6.97559 31.5183C6.97559 44.7868 17.7319 55.5433 31.0006 55.5433C39.3176 55.5433 46.6473 51.3172 50.9599 44.8953L50.6566 44.592L45.9227 40.298C43.2371 37.8811 39.2378 37.6403 36.2819 39.7178L35.5116 40.259C33.4573 41.7028 30.6627 41.4608 28.8874 39.6853Z" fill="#4CAF50"/>
<path d="M38.7499 28.4173C41.6035 28.4173 43.9166 26.1042 43.9166 23.2507C43.9166 20.3972 41.6035 18.084 38.7499 18.084C35.8964 18.084 33.5833 20.3972 33.5833 23.2507C33.5833 26.1042 35.8964 28.4173 38.7499 28.4173Z" fill="#4CAF50"/>
<path fill-rule="evenodd" clip-rule="evenodd" d="M3.22925 30.9994C3.22925 15.6619 15.6627 3.22852 31.0001 3.22852C46.3376 3.22852 58.7709 15.6619 58.7709 30.9994C58.7709 46.3369 46.3376 58.7702 31.0001 58.7702C15.6627 58.7702 3.22925 46.3369 3.22925 30.9994ZM54.1969 25.2381C54.7373 27.2396 55.0256 29.3447 55.0256 31.5171C55.0256 44.7856 44.2691 55.5421 31.0006 55.5421C17.732 55.5421 6.9756 44.7856 6.9756 31.5171C6.9756 29.361 7.25961 27.2711 7.79229 25.2831C10.3543 14.8461 19.773 7.10352 31.0001 7.10352C42.211 7.10352 51.6187 14.8239 54.1969 25.2381Z" fill="#4CAF50"/>
</svg>
