<svg width="473" height="425" viewBox="0 0 473 425" fill="none" xmlns="http://www.w3.org/2000/svg">
<path d="M421.043 223.325C415.604 232.774 408.352 241.054 399.703 247.691C391.054 254.327 381.178 259.189 370.644 261.997C391.907 256.3 414.563 259.282 433.626 270.289C452.69 281.295 466.601 299.424 472.298 320.687L85.9279 424.215C80.2305 402.952 83.2132 380.297 94.2197 361.233C105.226 342.169 123.355 328.258 144.618 322.561C123.355 328.258 100.7 325.276 81.6358 314.269C62.572 303.263 48.6613 285.134 42.964 263.871C37.2666 242.608 40.2492 219.953 51.2557 200.889C62.2622 181.825 80.3909 167.915 101.654 162.217C80.3909 167.915 57.7356 164.932 38.6718 153.925C19.6081 142.919 5.69738 124.79 0 103.527L386.37 -0.000273705C392.068 21.2626 389.085 43.9179 378.079 62.9817C367.072 82.0455 348.943 95.9562 327.68 101.654C343.537 97.4048 360.297 97.9534 375.842 103.23C391.387 108.507 405.018 118.275 415.011 131.298C425.004 144.322 430.911 160.016 431.985 176.397C433.059 192.778 429.251 209.109 421.043 223.325Z" fill="#CBB076"/>
</svg>
