<?xml version="1.0" encoding="UTF-8"?>
<svg id="Layer_1" xmlns="http://www.w3.org/2000/svg" version="1.1" viewBox="0 0 537.45 128">
  <!-- Generator: Adobe Illustrator 29.0.1, SVG Export Plug-In . SVG Version: 2.1.0 Build 192)  -->
  <defs>
    <style>
      .st0 {
        fill: #92003a;
      }

      .st1 {
        fill: #000a5c;
      }

      .st2 {
        fill: #f67be5;
      }
    </style>
  </defs>
  <g>
    <polygon class="st0" points="38.92 59.9 38.92 116.05 14.93 101.6 14.93 59.9 38.92 59.9"/>
    <polygon class="st2" points="38.91 11.95 38.91 35.92 14.93 59.9 14.93 35.94 38.91 11.95"/>
    <polygon class="st0" points="62.9 11.95 86.88 35.92 38.91 35.92 62.9 11.95"/>
    <polygon class="st2" points="86.88 35.94 86.88 69.84 72.83 83.89 38.91 83.89 62.9 59.9 62.9 11.95 86.88 35.94"/>
  </g>
  <g>
    <g>
      <path class="st1" d="M116.75,91.38l-1.98,6h-2.55l6.49-19.09h2.97l6.51,19.09h-2.63l-2.04-6h-6.77ZM123,89.45l-1.87-5.49c-.42-1.25-.71-2.38-.99-3.48h-.06c-.28,1.13-.59,2.29-.96,3.46l-1.87,5.52h5.75Z"/>
      <path class="st1" d="M155.34,78.55c1.5-.23,3.29-.4,5.24-.4,3.54,0,6.06.82,7.73,2.38,1.7,1.56,2.69,3.77,2.69,6.85s-.96,5.66-2.75,7.42c-1.78,1.78-4.73,2.75-8.44,2.75-1.76,0-3.23-.08-4.47-.23v-18.78ZM157.81,95.43c.62.11,1.53.14,2.49.14,5.27,0,8.13-2.95,8.13-8.1.03-4.5-2.52-7.36-7.73-7.36-1.27,0-2.24.11-2.89.25v15.07Z"/>
      <path class="st1" d="M198.56,78.55c1.5-.23,3.29-.4,5.24-.4,3.54,0,6.06.82,7.73,2.38,1.7,1.56,2.69,3.77,2.69,6.85s-.96,5.66-2.75,7.42c-1.78,1.78-4.73,2.75-8.44,2.75-1.76,0-3.23-.08-4.47-.23v-18.78ZM201.02,95.43c.62.11,1.53.14,2.49.14,5.27,0,8.13-2.95,8.13-8.1.03-4.5-2.52-7.36-7.73-7.36-1.27,0-2.24.11-2.89.25v15.07Z"/>
      <path class="st1" d="M258.08,87.64c0,6.57-3.99,10.05-8.86,10.05s-8.58-3.91-8.58-9.69c0-6.06,3.77-10.03,8.86-10.03s8.58,3.99,8.58,9.66ZM243.27,87.95c0,4.08,2.21,7.73,6.09,7.73s6.12-3.6,6.12-7.93c0-3.79-1.98-7.76-6.09-7.76s-6.12,3.77-6.12,7.96Z"/>
      <path class="st1" d="M285.64,97.38v-19.09h2.69l6.12,9.66c1.42,2.24,2.52,4.25,3.43,6.2l.06-.03c-.23-2.55-.28-4.87-.28-7.84v-7.99h2.32v19.09h-2.49l-6.06-9.69c-1.33-2.12-2.61-4.3-3.57-6.37l-.08.03c.14,2.41.2,4.7.2,7.87v8.16h-2.32Z"/>
      <path class="st1" d="M328.28,94.38c1.1.68,2.72,1.25,4.42,1.25,2.52,0,3.99-1.33,3.99-3.26,0-1.78-1.02-2.8-3.6-3.79-3.12-1.1-5.04-2.72-5.04-5.41,0-2.97,2.46-5.18,6.17-5.18,1.95,0,3.37.45,4.22.93l-.68,2.01c-.62-.34-1.9-.91-3.62-.91-2.61,0-3.6,1.56-3.6,2.86,0,1.78,1.16,2.66,3.79,3.68,3.23,1.25,4.87,2.8,4.87,5.61,0,2.95-2.18,5.49-6.68,5.49-1.84,0-3.85-.54-4.87-1.22l.62-2.07Z"/>
    </g>
    <g>
      <g>
        <path class="st1" d="M302.28,53.36h10.25v7.36h-17.87v-29.78h7.61v22.42Z"/>
        <path class="st1" d="M326.32,53.57h11.53v7.15h-19.14v-29.78h18.93v7.1h-11.32v4.13h10.25v7.02h-10.25v4.38Z"/>
        <path class="st1" d="M375.23,30.94v29.78h-7.57v-16.04l-7.23,11.95h-.77l-7.19-11.91v15.99h-7.61v-29.78h7.61l7.57,12.72,7.61-12.72h7.57Z"/>
        <path class="st1" d="M390.97,53.57h11.53v7.15h-19.14v-29.78h18.93v7.1h-11.32v4.13h10.25v7.02h-10.25v4.38Z"/>
        <path class="st1" d="M425.94,30.94h7.57v29.78h-5.87l-10.51-14.97v14.97h-7.61v-29.78h5.91l10.51,14.97v-14.97Z"/>
        <path class="st1" d="M462.05,30.94v7.36h-7.36v22.42h-7.61v-22.42h-7.36v-7.36h22.33Z"/>
        <path class="st1" d="M492.27,56.87c-3.02,2.99-6.71,4.49-11.08,4.49s-8.06-1.5-11.08-4.49c-3.02-2.99-4.53-6.67-4.53-11.04s1.51-8.05,4.53-11.04c3.02-2.99,6.71-4.49,11.08-4.49s8.06,1.5,11.08,4.49c3.02,2.99,4.53,6.67,4.53,11.04s-1.51,8.05-4.53,11.04ZM475.45,51.64c1.53,1.52,3.45,2.28,5.74,2.28s4.21-.76,5.74-2.28c1.53-1.52,2.3-3.45,2.3-5.81s-.77-4.29-2.3-5.81c-1.53-1.52-3.45-2.28-5.74-2.28s-4.21.76-5.74,2.28c-1.53,1.52-2.3,3.45-2.3,5.81s.77,4.29,2.3,5.81Z"/>
        <path class="st1" d="M519.26,60.72l-5.19-9.61h-2.72v9.61h-7.61v-29.78h11.91c3.03,0,5.58.97,7.63,2.91s3.08,4.4,3.08,7.38c0,1.79-.45,3.42-1.36,4.91-.91,1.49-2.14,2.67-3.7,3.55l6.12,11.02h-8.17ZM511.35,37.96v6.68h4.21c.94.03,1.7-.27,2.3-.89.59-.62.89-1.43.89-2.42s-.3-1.8-.89-2.42c-.6-.62-1.36-.94-2.3-.94h-4.21Z"/>
        <g>
          <rect class="st2" x="268.51" y="30.94" width="18.93" height="7.1"/>
          <polygon class="st1" points="287.44 49.38 287.44 42.28 276.12 42.28 268.51 42.28 268.51 49.38 268.51 53.62 268.51 60.72 276.12 60.72 287.44 60.72 287.44 53.62 276.12 53.62 276.12 49.38 287.44 49.38"/>
        </g>
      </g>
      <g>
        <path class="st1" d="M123.78,30.94c3.01,0,5.53.98,7.57,2.93,2.04,1.96,3.06,4.45,3.06,7.49s-1.02,5.53-3.06,7.49c-2.04,1.96-4.57,2.93-7.57,2.93h-3.96v8.93h-7.61v-29.78h11.57ZM123.78,44.56c.85,0,1.57-.3,2.15-.89.58-.6.87-1.36.87-2.3s-.29-1.69-.87-2.28c-.58-.58-1.3-.87-2.15-.87h-3.96v6.34h3.96Z"/>
        <path class="st1" d="M156.32,60.72l-5.19-9.61h-2.72v9.61h-7.61v-29.78h11.91c3.03,0,5.58.97,7.63,2.91s3.08,4.4,3.08,7.38c0,1.79-.45,3.42-1.36,4.91-.91,1.49-2.14,2.67-3.7,3.55l6.12,11.02h-8.17ZM148.41,37.96v6.68h4.21c.94.03,1.7-.27,2.3-.89.59-.62.89-1.43.89-2.42s-.3-1.8-.89-2.42c-.6-.62-1.36-.94-2.3-.94h-4.21Z"/>
        <path class="st1" d="M170.57,30.94h7.61v29.78h-7.61v-29.78Z"/>
        <path class="st1" d="M216.64,30.94v29.78h-7.57v-16.04l-7.23,11.95h-.77l-7.19-11.91v15.99h-7.61v-29.78h7.61l7.57,12.72,7.61-12.72h7.57Z"/>
        <path class="st1" d="M232.38,53.57h11.53v7.15h-19.14v-29.78h18.93v7.1h-11.32v4.13h10.25v7.02h-10.25v4.38Z"/>
        <g>
          <rect class="st1" x="224.76" y="30.94" width="18.93" height="7.1"/>
          <polygon class="st1" points="243.69 49.38 243.69 42.28 232.38 42.28 224.76 42.28 224.76 49.38 224.76 53.62 224.76 60.72 232.38 60.72 243.69 60.72 243.69 53.62 232.38 53.62 232.38 49.38 243.69 49.38"/>
        </g>
      </g>
    </g>
  </g>
</svg>