<svg width="468" height="415" viewBox="0 0 468 415" fill="none" xmlns="http://www.w3.org/2000/svg">
<path style="mix-blend-mode:multiply" d="M287.533 0.00574748C305.806 0.24966 325.196 10.7125 329.935 28.37C333.822 42.8081 327.238 57.9777 319.049 70.4403C310.86 82.903 300.752 94.5371 296.257 108.78C291.762 123.023 294.945 141.315 308.139 148.266C315.623 152.192 324.565 151.704 332.972 150.997C349.171 149.664 365.37 147.997 381.569 145.997C398.409 143.9 415.588 141.486 432.16 145.583C448.732 149.68 464.308 162.045 466.786 178.873C467.47 186.279 466.644 193.748 464.357 200.823C454.224 238.626 431.382 272.136 403.439 299.475C375.495 326.815 342.497 348.254 308.673 367.935C288.602 379.561 268.199 390.576 247.464 400.982C234.367 407.518 220.59 413.957 205.962 414.079C191.334 414.201 175.588 406.177 171.36 392.129C164.071 367.74 193.23 340.107 179.865 318.401C175.006 310.646 165.796 306.572 156.733 305.914C147.669 305.255 138.679 307.548 130.004 309.987C106.967 316.449 84.3155 324.225 62.1613 333.278C52.9763 337.034 42.5275 341.035 33.464 336.986C19.1278 330.523 19.4434 309.768 24.9835 295.013C33.7068 271.794 49.2824 251.747 66.9962 234.431C74.9419 226.651 83.4717 219.187 89.4249 209.773C95.378 200.359 98.4634 188.287 94.4298 177.897C89.5699 165.045 75.1367 158.216 61.5294 156.362C47.9221 154.509 33.9745 156.362 20.3429 154.631C13.3448 153.777 5.76334 151.411 2.16711 145.29C-0.262711 140.9 -0.262694 135.535 0.320433 130.437C2.99309 105.508 12.3009 81.7593 27.2677 61.6845C32.4705 54.7355 38.3837 48.3523 44.9093 42.6376C55.7466 33.126 71.6378 20.6875 86.6788 21.7606C106.458 23.102 113.14 38.6135 127.185 48.3934C138.241 56.1003 153.258 50.8322 165.553 45.4179L235.242 14.6386C251.936 7.32195 269.261 -0.238139 287.533 0.00574748ZM107.673 326.596C118.583 322.913 140.501 315.377 149.71 327.059C154.351 332.962 145.896 335.279 141.352 336.815C133.041 339.644 124.172 341.181 116.591 345.814C111.075 349.229 106.555 353.985 101.501 358.009C96.4469 362.033 90.3719 365.399 83.9327 365.131C77.4937 364.862 71.0548 359.765 71.0548 353.302C71.1278 347.424 76.158 342.961 81.0177 339.718C89.2883 334.185 98.2507 329.772 107.673 326.596ZM163.269 323.817C172.284 319.354 183.583 328.72 178.723 338.329C178.221 339.375 177.509 340.306 176.631 341.061C175.753 341.817 174.727 342.381 173.62 342.719C172.419 343.004 171.181 343.094 169.951 342.987C163.949 342.768 158.92 340.426 158.094 334.012C157.754 331.98 158.073 329.893 159.005 328.058C159.937 326.222 161.431 324.735 163.269 323.817ZM3.57825 161.825C6.83428 159.679 9.36139 162.313 12.6417 163.434C20.4414 166.044 28.9943 165.434 36.9884 164.897C45.2742 164.336 53.8035 163.752 61.7491 166.19C69.6948 168.629 77.0818 174.799 78.4669 183.018C79.4632 189.116 77.1305 195.213 74.7736 200.871C73.0395 205.65 70.6252 210.152 67.6056 214.236C66.0907 216.274 64.1825 217.984 61.9952 219.266C59.8079 220.549 57.3856 221.376 54.8732 221.699C52.4874 221.945 50.0903 221.35 48.0939 220.016C46.6284 218.718 45.4924 217.086 44.7823 215.258C44.0723 213.429 43.8078 211.457 44.0109 209.505C44.0109 205.432 45.1778 201.457 45.3722 197.31C45.621 195.294 45.4279 193.248 44.8068 191.314C44.1856 189.381 43.1509 187.607 41.7755 186.116C38.1307 182.726 32.5665 182.896 27.6095 182.799C21.0901 182.889 14.64 181.444 8.77746 178.58C6.95934 177.74 5.33263 176.534 3.99914 175.036C2.66567 173.538 1.65387 171.78 1.02649 169.873C0.675525 168.426 0.727959 166.91 1.17786 165.49C1.62784 164.071 2.4585 162.803 3.57825 161.825ZM333.7 67.4647C338.123 62.2211 347.697 51.0267 353.723 60.9286C358.461 68.7086 350.442 80.3911 349.519 88.4393C349.028 92.7768 349.621 97.1687 351.244 101.219C353.528 106.852 357.756 111.682 359.214 117.584C359.954 120.959 359.834 124.467 358.865 127.783C357.897 131.099 356.112 134.118 353.674 136.558C351.2 138.959 348.246 140.805 345.008 141.974C341.77 143.142 338.321 143.607 334.891 143.338C327.993 142.767 321.495 139.85 316.473 135.07C314.449 133.33 312.796 131.199 311.612 128.803C310.27 125.388 309.802 121.69 310.252 118.047C311.151 105.194 316.716 93.1212 323.301 82.0487C326.361 76.908 329.839 72.03 333.7 67.4647ZM379.336 108.415C381.744 108.167 384.177 108.427 386.479 109.179C388.78 109.93 390.899 111.158 392.7 112.781C394.305 114.075 395.649 115.665 396.661 117.464C398.111 120.513 398.487 123.966 397.728 127.258C396.968 130.549 395.119 133.485 392.482 135.585C389.752 137.565 386.557 138.799 383.209 139.167C379.861 139.535 376.475 139.023 373.383 137.682C371.068 136.807 369.041 135.305 367.527 133.341C361.477 124.927 369.714 109.878 379.336 108.415ZM116.08 3.76356C121.669 2.81283 126.723 10.2265 130.659 13.0556C136.009 16.8543 142.357 18.9834 148.907 19.1766C152.771 19.3961 157.266 18.9579 159.866 21.8358C160.57 22.6411 161.093 23.5896 161.398 24.6161C162.025 27.2734 161.812 30.0612 160.789 32.5917C159.766 35.1223 157.982 37.2705 155.687 38.7372C150.991 41.5594 145.502 42.7585 140.063 42.1513C137.124 42.0745 134.228 41.4285 131.533 40.2489C125.07 37.0783 120.211 29.4442 116.08 23.8837C113.14 19.9327 107.406 5.25128 116.08 3.76356Z" fill="#2DBEAF"/>
</svg>
