<svg width="500" height="501" viewBox="0 0 500 501" fill="none" xmlns="http://www.w3.org/2000/svg">
<path fill-rule="evenodd" clip-rule="evenodd" d="M190.312 280.103C175.117 300.455 166.83 325.136 166.663 350.537C166.683 363.149 168.766 375.673 172.829 387.612C176.919 399.554 182.815 410.799 190.312 420.953C195.786 428.414 199.084 437.248 199.838 446.472C200.592 455.695 198.772 464.947 194.582 473.198C190.391 481.449 183.994 488.375 176.103 493.206C168.211 498.036 159.134 500.581 149.883 500.558C140.631 500.535 131.567 497.945 123.7 493.075C115.832 488.206 109.47 481.248 105.32 472.976C101.171 464.705 99.3975 455.444 100.197 446.224C100.997 437.004 104.338 428.187 109.85 420.753C125 400.509 133.234 375.925 133.332 350.637C133.256 325.4 125.077 300.855 110 280.62C109.167 279.52 108.333 278.369 107.65 277.286C107.333 276.786 107.034 276.269 106.734 275.753L106.733 275.752C106.685 275.686 106.646 275.613 106.617 275.535C106.42 275.204 106.233 274.863 106.048 274.527L106.048 274.527L106.047 274.525L105.973 274.39C105.932 274.316 105.891 274.242 105.85 274.168C105.6 273.718 105.567 273.652 105.45 273.385C105.393 273.254 105.295 273.062 105.189 272.854L105.189 272.853C105.079 272.638 104.96 272.404 104.867 272.201C104.467 271.384 104.1 270.534 103.767 269.734C103.55 269.201 103.334 268.667 103.134 268.067C103.134 267.936 103.074 267.814 103.016 267.694L103.016 267.693C102.992 267.645 102.969 267.598 102.95 267.55L102.95 267.549C102.734 266.933 102.517 266.316 102.334 265.683C102.327 265.605 102.327 265.527 102.334 265.45C102.167 264.933 102.017 264.399 101.884 263.783C101.804 263.412 101.748 263.234 101.698 263.075C101.664 262.969 101.634 262.872 101.6 262.732L101.6 262.731C101.434 262.048 101.267 261.365 101.134 260.682C101 259.998 100.817 259.015 100.7 258.248C100.584 257.481 100.534 257.048 100.467 256.448L100.434 256.153C100.388 255.746 100.361 255.503 100.334 255.147C100.323 255.003 100.319 254.858 100.315 254.714C100.308 254.425 100.301 254.136 100.234 253.847C100.167 253.559 100.189 253.352 100.211 253.142C100.223 253.037 100.234 252.931 100.234 252.813V250.596V248.379V247.345C100.234 246.995 100.234 246.478 100.334 246.045C100.38 245.845 100.384 245.645 100.387 245.445C100.391 245.211 100.395 244.978 100.467 244.745C100.545 244.49 100.578 244.122 100.611 243.739C100.635 243.469 100.659 243.192 100.7 242.944L100.716 242.848L100.738 242.719L100.756 242.609C100.856 241.997 100.995 241.149 101.134 240.51V240.41C101.3 239.643 101.484 238.86 101.684 238.093L101.684 238.093C101.884 237.326 102.084 236.559 102.334 235.809C102.326 235.737 102.326 235.665 102.334 235.593C102.517 234.959 102.734 234.343 102.95 233.726L102.95 233.726L102.95 233.726L102.95 233.726L102.95 233.725C103.021 233.557 103.083 233.384 103.134 233.209C103.212 232.999 103.293 232.79 103.376 232.577C103.504 232.246 103.635 231.906 103.767 231.542C103.817 231.433 103.863 231.321 103.909 231.208C103.954 231.096 104 230.983 104.05 230.875C104.5 229.824 104.984 228.791 105.517 227.774C105.617 227.557 105.734 227.341 105.85 227.124C106.1 226.64 106.367 226.157 106.65 225.69C106.652 225.678 106.654 225.665 106.656 225.653C106.658 225.645 106.659 225.637 106.661 225.629C106.663 225.622 106.665 225.614 106.667 225.607C106.9 225.19 107.133 224.79 107.4 224.39C107.721 223.817 108.072 223.26 108.45 222.723C108.883 222.056 109.35 221.406 109.817 220.772L110.1 220.389C125.099 200.202 133.241 175.741 133.332 150.589C133.26 125.266 125.025 100.641 109.85 80.372C104.337 72.94 100.994 64.1235 100.192 54.9037C99.3903 45.684 101.162 36.4225 105.31 28.15C109.457 19.8775 115.818 12.9184 123.685 8.04723C131.551 3.17601 140.614 0.583694 149.866 0.558775C159.118 0.533856 168.195 3.0773 176.088 7.90608C183.98 12.7348 190.379 19.6596 194.571 27.9096C198.763 36.1596 200.584 45.4114 199.832 54.6354C199.08 63.8593 195.785 72.6937 190.312 80.1553C175.137 100.48 166.851 125.122 166.663 150.489C166.683 163.101 168.766 175.625 172.829 187.564C176.919 199.507 182.815 210.751 190.312 220.906C193.137 224.771 195.383 229.028 196.978 233.542C197.228 234.242 197.461 234.942 197.694 235.659C197.928 236.376 198.128 237.093 198.311 237.81L198.348 237.953C198.51 238.589 198.62 239.018 198.744 239.577C198.744 239.691 198.777 239.806 198.81 239.921C198.829 239.989 198.849 240.058 198.861 240.127C199.161 241.527 199.394 242.928 199.578 244.361C199.661 245.095 199.728 245.812 199.794 246.545C199.861 247.279 199.878 247.795 199.894 248.429C199.905 248.85 199.902 249.301 199.898 249.756V249.758V249.76V249.762C199.896 249.99 199.894 250.219 199.894 250.446V250.613V252.63C199.894 253.297 199.894 253.914 199.778 254.547C199.709 254.921 199.681 255.352 199.652 255.79V255.79C199.632 256.095 199.612 256.403 199.578 256.698C199.5 257.364 199.394 258.015 199.286 258.679L199.286 258.679L199.286 258.68L199.286 258.68L199.261 258.831C199.144 259.548 199.011 260.232 198.861 260.915C198.711 261.599 198.494 262.582 198.278 263.366C198.256 263.445 198.235 263.521 198.215 263.595C198.183 263.709 198.154 263.816 198.126 263.92L198.124 263.925L198.124 263.927C197.988 264.426 197.876 264.834 197.728 265.316C197.718 265.405 197.718 265.494 197.728 265.583L197.728 265.584C197.511 266.234 197.294 266.884 197.061 267.533C196.539 268.934 195.983 270.301 195.395 271.634C193.994 274.624 192.291 277.461 190.312 280.103ZM99.861 354.246C99.2898 361.982 96.9265 369.478 92.9581 376.142C88.9896 382.807 83.5248 388.456 76.996 392.644C70.4671 396.832 63.0533 399.444 55.3409 400.273C47.6285 401.101 39.8291 400.124 32.5596 397.418C25.2901 394.712 18.7498 390.352 13.4562 384.683C8.16264 379.014 4.26086 372.19 2.05952 364.753C-0.14182 357.315 -0.582334 349.468 0.772814 341.831C2.12796 334.194 5.2416 326.977 9.86746 320.75C25.0345 300.479 33.2631 275.859 33.3324 250.543C33.2582 225.224 25.0238 200.604 9.8508 180.335C4.33936 172.904 0.997863 164.09 0.198171 154.874C-0.60152 145.657 1.17195 136.399 5.32123 128.131C9.47052 119.862 15.8329 112.907 23.7003 108.039C31.5677 103.171 40.6315 100.582 49.8832 100.559C59.1349 100.536 68.2115 103.08 76.103 107.909C83.9945 112.737 90.3913 119.661 94.5817 127.909C98.772 136.157 100.591 145.406 99.8376 154.626C99.0838 163.846 95.7861 172.677 90.3117 180.135C75.1168 200.479 66.83 225.151 66.6634 250.543C66.83 275.934 75.1168 300.606 90.3117 320.95C97.373 330.551 100.761 342.363 99.861 354.246ZM292.958 376.142C296.927 369.478 299.29 361.982 299.861 354.246C300.761 342.363 297.373 330.551 290.312 320.95C275.117 300.606 266.83 275.934 266.663 250.543C266.83 225.151 275.117 200.479 290.312 180.135C295.786 172.677 299.084 163.846 299.838 154.626C300.591 145.406 298.772 136.157 294.582 127.909C290.391 119.661 283.995 112.737 276.103 107.909C268.212 103.08 259.135 100.536 249.883 100.559C240.632 100.582 231.568 103.171 223.7 108.039C215.833 112.907 209.471 119.862 205.321 128.131C201.172 136.399 199.398 145.657 200.198 154.874C200.998 164.09 204.339 172.904 209.851 180.335C225.024 200.604 233.258 225.224 233.332 250.543C233.263 275.859 225.035 300.479 209.867 320.75C205.242 326.977 202.128 334.194 200.773 341.831C199.418 349.468 199.858 357.315 202.06 364.753C204.261 372.19 208.163 379.014 213.456 384.683C218.75 390.352 225.29 394.712 232.56 397.418C239.829 400.124 247.629 401.101 255.341 400.273C263.053 399.444 270.467 396.832 276.996 392.644C283.525 388.456 288.99 382.807 292.958 376.142ZM390.312 280.103C375.117 300.455 366.83 325.136 366.663 350.537C366.683 363.149 368.766 375.673 372.829 387.612C376.919 399.554 382.815 410.799 390.312 420.953C395.786 428.414 399.084 437.248 399.838 446.472C400.591 455.695 398.772 464.947 394.582 473.198C390.391 481.449 383.994 488.375 376.103 493.206C368.211 498.036 359.134 500.581 349.883 500.558C340.631 500.535 331.567 497.945 323.699 493.075C315.832 488.206 309.47 481.248 305.32 472.976C301.171 464.705 299.397 455.444 300.197 446.224C300.997 437.004 304.338 428.187 309.85 420.753C325 400.509 333.234 375.925 333.332 350.637C333.256 325.4 325.077 300.855 310 280.62C309.167 279.52 308.333 278.369 307.65 277.286C307.334 276.786 307.034 276.27 306.734 275.754L306.733 275.752C306.71 275.72 306.689 275.687 306.67 275.652C306.65 275.615 306.632 275.576 306.617 275.535C306.42 275.204 306.233 274.863 306.047 274.526L306.047 274.526L306.046 274.524C305.981 274.405 305.915 274.286 305.85 274.168C305.6 273.718 305.567 273.652 305.45 273.385C305.393 273.254 305.295 273.062 305.189 272.854C305.079 272.638 304.96 272.405 304.867 272.201C304.467 271.384 304.1 270.534 303.767 269.734C303.55 269.201 303.334 268.667 303.134 268.067C303.134 267.936 303.074 267.814 303.016 267.694L303.016 267.693C302.992 267.645 302.969 267.598 302.95 267.55C302.734 266.933 302.517 266.317 302.334 265.683C302.299 265.608 302.271 265.53 302.25 265.45C302.084 264.933 301.934 264.399 301.8 263.783C301.72 263.412 301.664 263.234 301.614 263.075C301.581 262.969 301.55 262.872 301.517 262.732C301.35 262.049 301.184 261.365 301.05 260.682C300.917 259.998 300.734 259.015 300.617 258.248C300.5 257.481 300.451 257.048 300.384 256.448L300.351 256.152C300.305 255.746 300.278 255.502 300.25 255.147C300.239 255.003 300.226 254.858 300.213 254.713C300.188 254.425 300.162 254.136 300.15 253.847C300.139 253.559 300.143 253.352 300.147 253.143V253.142C300.148 253.081 300.149 253.02 300.15 252.957C300.15 252.91 300.15 252.863 300.15 252.813V250.596V248.379V247.345C300.15 246.995 300.15 246.478 300.25 246.045C300.297 245.845 300.3 245.645 300.304 245.445C300.308 245.211 300.312 244.978 300.384 244.745C300.462 244.49 300.494 244.122 300.528 243.739C300.552 243.469 300.576 243.192 300.617 242.944C300.634 242.844 300.652 242.731 300.672 242.608C300.773 241.996 300.912 241.149 301.05 240.51V240.41C301.217 239.643 301.4 238.86 301.6 238.093C301.8 237.326 302 236.559 302.25 235.809C302.243 235.737 302.243 235.665 302.25 235.593C302.434 234.959 302.65 234.342 302.867 233.725C302.938 233.557 302.999 233.384 303.05 233.209C303.129 232.999 303.21 232.79 303.292 232.577L303.293 232.575C303.421 232.245 303.552 231.906 303.684 231.542C303.734 231.433 303.779 231.321 303.825 231.208C303.871 231.096 303.917 230.983 303.967 230.875C304.417 229.824 304.9 228.791 305.434 227.774C305.534 227.557 305.65 227.341 305.767 227.124C306.017 226.64 306.283 226.157 306.567 225.69C306.563 225.66 306.562 225.63 306.563 225.6C306.563 225.58 306.565 225.56 306.567 225.54C306.8 225.123 307.033 224.723 307.3 224.323C307.621 223.75 307.972 223.194 308.35 222.656C308.783 221.989 309.25 221.339 309.717 220.706L310 220.322C325.021 200.166 333.197 175.729 333.332 150.589C333.26 125.266 325.025 100.641 309.85 80.372C304.337 72.94 300.994 64.1235 300.192 54.9037C299.39 45.684 301.162 36.4225 305.31 28.15C309.457 19.8775 315.818 12.9184 323.685 8.04723C331.551 3.17601 340.614 0.583694 349.866 0.558775C359.118 0.533856 368.195 3.0773 376.088 7.90608C383.98 12.7348 390.379 19.6596 394.571 27.9096C398.763 36.1596 400.584 45.4114 399.832 54.6354C399.08 63.8593 395.785 72.6937 390.312 80.1553C375.137 100.48 366.851 125.122 366.663 150.489C366.683 163.101 368.766 175.625 372.829 187.564C376.919 199.507 382.815 210.751 390.312 220.906C393.137 224.771 395.383 229.028 396.978 233.542C397.228 234.242 397.461 234.942 397.694 235.659C397.928 236.376 398.128 237.093 398.311 237.81L398.349 237.956C398.511 238.59 398.62 239.019 398.744 239.577C398.744 239.691 398.777 239.806 398.81 239.921C398.829 239.989 398.849 240.058 398.861 240.127C399.161 241.511 399.394 242.928 399.578 244.361C399.661 245.095 399.728 245.812 399.794 246.545C399.824 246.869 399.827 247.151 399.83 247.419C399.835 247.758 399.839 248.075 399.894 248.429C399.961 248.85 399.939 249.3 399.917 249.756V249.756C399.906 249.986 399.894 250.217 399.894 250.446V250.613V252.63V254.03C399.886 254.108 399.886 254.186 399.894 254.264C399.9 254.324 399.901 254.385 399.9 254.446C399.899 254.48 399.897 254.513 399.894 254.547C399.894 255.269 399.828 255.986 399.694 256.698C399.594 257.414 399.494 258.115 399.378 258.831C399.261 259.548 399.128 260.232 398.978 260.915C398.828 261.599 398.611 262.582 398.394 263.366C398.339 263.567 398.289 263.751 398.241 263.924C398.105 264.424 397.993 264.833 397.844 265.316C397.807 265.402 397.779 265.491 397.761 265.583C397.544 266.233 397.328 266.883 397.095 267.533C396.572 268.934 396.017 270.301 395.428 271.634C395.195 272.135 394.945 272.635 394.695 273.118C393.444 275.572 391.977 277.909 390.312 280.103ZM492.958 376.142C496.927 369.478 499.29 361.982 499.861 354.246C500.761 342.363 497.373 330.551 490.312 320.95C475.117 300.606 466.83 275.934 466.663 250.543C466.83 225.151 475.117 200.479 490.312 180.135C495.786 172.677 499.084 163.846 499.838 154.626C500.591 145.406 498.772 136.157 494.582 127.909C490.391 119.661 483.995 112.737 476.103 107.909C468.212 103.08 459.135 100.536 449.883 100.559C440.632 100.582 431.568 103.171 423.7 108.039C415.833 112.907 409.471 119.862 405.321 128.131C401.172 136.399 399.398 145.657 400.198 154.874C400.998 164.09 404.339 172.904 409.851 180.335C425.024 200.604 433.258 225.224 433.332 250.543C433.263 275.859 425.035 300.479 409.867 320.75C405.242 326.977 402.128 334.194 400.773 341.831C399.418 349.468 399.858 357.315 402.06 364.753C404.261 372.19 408.163 379.014 413.456 384.683C418.75 390.352 425.29 394.712 432.56 397.418C439.829 400.124 447.629 401.101 455.341 400.273C463.053 399.444 470.467 396.832 476.996 392.644C483.525 388.456 488.99 382.807 492.958 376.142Z" fill="#877D7D"/>
</svg>
