<svg width="465" height="400" viewBox="0 0 465 400" fill="none" xmlns="http://www.w3.org/2000/svg">
<path d="M316.322 17.6623C316.322 17.6623 262.211 37.936 236.842 58.2097C211.473 78.4833 248.664 70.0444 236.842 81.8538C236.842 81.8538 213.147 93.6885 194.552 102.127C175.957 110.566 167.483 124.099 172.557 122.401C177.631 120.703 208.073 113.962 182.705 127.47C157.336 140.977 138.741 142.675 150.588 130.865C162.435 119.056 175.957 95.3865 162.41 102.127C148.863 108.868 143.814 119.031 125.219 129.167C106.624 139.304 120.145 146.071 96.4506 161.276C72.7562 176.481 57.5602 168.017 50.7868 183.222C44.0133 198.427 60.9343 203.496 42.339 217.029C23.7436 230.561 10.1967 232.234 3.44859 245.741C-3.29952 259.248 0.0491313 245.741 11.8964 277.85C23.7436 309.958 27.1177 315.001 38.9649 306.562C50.8122 298.123 54.1862 294.727 71.0818 286.288C87.9775 277.85 106.598 262.644 96.4506 272.781C86.3031 282.918 77.8554 296.425 69.4075 299.796C63.7746 302.251 58.6212 305.683 54.1862 309.933C54.1862 309.933 44.0386 311.631 55.8605 323.465C67.6824 335.3 67.7078 326.836 76.1556 350.48C84.6034 374.124 84.6288 384.286 99.8501 377.52C115.071 370.754 137.041 355.548 135.367 367.383C133.692 379.218 116.746 384.286 125.219 389.355C133.692 394.423 143.814 401.164 165.809 391.027C185.86 381.861 204.169 369.291 219.921 353.876C233.442 340.343 257.137 328.534 274.032 318.397C290.928 308.26 260.511 321.767 258.811 338.671C257.111 355.574 253.737 357.246 290.953 335.275C328.17 313.303 358.612 304.864 370.434 289.659C382.256 274.454 380.582 267.713 378.907 262.644C377.233 257.576 395.803 259.248 405.95 254.18C416.098 249.112 419.497 238.975 436.393 225.467C453.289 211.96 468.535 189.989 463.462 174.783C458.388 159.578 446.541 137.606 444.866 127.47C443.192 117.333 431.319 127.47 417.798 134.236C404.276 141.002 407.65 124.099 417.798 120.729C427.945 117.358 431.319 112.264 431.319 103.825C431.319 95.3865 421.172 97.0591 407.65 73.4149C399.866 59.646 390.804 46.6389 380.582 34.5655C380.582 34.5655 367.06 41.3065 350.139 48.0728C333.218 54.8392 309.549 56.5117 316.322 48.0728C323.096 39.6339 350.139 22.7307 350.139 22.7307C350.139 22.7307 345.065 5.82752 343.391 0.759105C341.717 -4.30931 316.322 17.6623 316.322 17.6623Z" fill="#4CDE93"/>
<path d="M242.551 399.596C231.64 399.609 220.919 396.741 211.474 391.284L101.323 327.776C91.8873 322.311 84.0518 314.469 78.5987 305.032C73.1455 295.596 70.2655 284.896 70.2461 274.001V146.91C70.2681 136.015 73.1492 125.316 78.6021 115.88C84.0549 106.444 91.889 98.6016 101.323 93.1341L211.474 29.6268C220.928 24.1923 231.644 21.332 242.551 21.332C253.458 21.332 264.174 24.1923 273.628 29.6268L383.754 93.1341C393.191 98.5977 401.028 106.44 406.482 115.876C411.935 125.313 414.814 136.014 414.831 146.91V273.95C414.819 284.847 411.942 295.55 406.488 304.988C401.035 314.425 393.195 322.266 383.754 327.726L273.628 391.233C264.187 396.705 253.466 399.59 242.551 399.596ZM242.551 44.1732C235.65 44.1681 228.87 45.9773 222.89 49.419L112.739 112.952C106.777 116.402 101.824 121.353 98.3745 127.311C94.9248 133.27 93.0987 140.027 93.078 146.91V273.95C93.0898 280.842 94.9117 287.609 98.3618 293.577C101.812 299.545 106.769 304.504 112.739 307.959L222.89 371.492C228.871 374.929 235.651 376.738 242.551 376.738C249.452 376.738 256.231 374.929 262.212 371.492L372.338 307.959C378.308 304.504 383.265 299.545 386.715 293.577C390.165 287.609 391.987 280.842 391.999 273.95V146.91C391.987 140.018 390.165 133.251 386.715 127.283C383.265 121.315 378.308 116.356 372.338 112.901L262.212 49.3683C256.228 45.9443 249.447 44.1527 242.551 44.1732Z" fill="#C8F2F2"/>
</svg>
