<svg width="82" height="83" viewBox="0 0 82 83" fill="none" xmlns="http://www.w3.org/2000/svg">
<path d="M52.9577 26.1243C52.9577 32.7288 47.6038 38.0827 40.9993 38.0827C34.3949 38.0827 29.041 32.7288 29.041 26.1243C29.041 19.5199 34.3949 14.166 40.9993 14.166C47.6038 14.166 52.9577 19.5199 52.9577 26.1243Z" fill="#F89B2E"/>
<path opacity="0.4" d="M66.6243 26.1257C66.6243 30.8431 62.8001 34.6673 58.0827 34.6673C53.3653 34.6673 49.541 30.8431 49.541 26.1257C49.541 21.4082 53.3653 17.584 58.0827 17.584C62.8001 17.584 66.6243 21.4082 66.6243 26.1257Z" fill="#F89B2E"/>
<path opacity="0.4" d="M15.375 26.1257C15.375 30.8431 19.1992 34.6673 23.9167 34.6673C28.6341 34.6673 32.4583 30.8431 32.4583 26.1257C32.4583 21.4082 28.6341 17.584 23.9167 17.584C19.1992 17.584 15.375 21.4082 15.375 26.1257Z" fill="#F89B2E"/>
<path d="M61.5 56.8743C61.5 63.4788 52.3218 68.8327 41 68.8327C29.6782 68.8327 20.5 63.4788 20.5 56.8743C20.5 50.2699 29.6782 44.916 41 44.916C52.3218 44.916 61.5 50.2699 61.5 56.8743Z" fill="#F89B2E"/>
<path opacity="0.4" d="M75.1673 56.8757C75.1673 61.593 69.0484 65.4173 61.5007 65.4173C53.9529 65.4173 47.834 61.593 47.834 56.8757C47.834 52.1583 53.9529 48.334 61.5007 48.334C69.0484 48.334 75.1673 52.1583 75.1673 56.8757Z" fill="#F89B2E"/>
<path opacity="0.4" d="M6.83398 56.8757C6.83398 61.593 12.9528 65.4173 20.5007 65.4173C28.0485 65.4173 34.1673 61.593 34.1673 56.8757C34.1673 52.1583 28.0485 48.334 20.5007 48.334C12.9528 48.334 6.83398 52.1583 6.83398 56.8757Z" fill="#F89B2E"/>
</svg>
