<svg width="413" height="414" viewBox="0 0 413 414" fill="none" xmlns="http://www.w3.org/2000/svg">
<path fill-rule="evenodd" clip-rule="evenodd" d="M222.451 8.71678C206.045 4.03181 188.512 5.29306 172.946 12.2779C167.19 14.5558 160.734 17.7188 153.921 21.0573L153.92 21.0574L153.92 21.0575C132.828 31.3917 108.306 43.4067 90.4883 36.0522C121.557 15.119 157.739 3.04108 195.153 1.11475C232.566 -0.811584 269.798 7.48636 302.852 25.118C301.517 25.7355 300.188 26.3606 298.864 26.9831C283.517 34.1986 268.894 41.0736 255.504 31.839C251.603 29.1082 248.138 26.1078 244.726 23.154C238.05 17.3732 231.579 11.7707 222.451 8.71678ZM248.179 64.3399C241.948 61.1872 236.807 56.7933 231.78 52.497C223.212 45.1738 214.975 38.1341 202.236 38.0076C185.033 37.8672 170.221 46.1042 155.295 54.4055C138.234 63.8933 121.023 73.4651 99.9162 70.7098C87.3825 69.0719 75.5448 64.0036 65.7092 56.064C59.4395 61.9237 53.5271 68.1543 48.0039 74.7224C64.2045 91.5248 77.4961 104.816 103.176 99.8007C116.178 97.3333 127.164 90.8358 138.199 84.3095C144.66 80.488 151.139 76.6567 158.048 73.6189C171.741 67.6001 186.788 64.8916 201.032 70.7098C208.805 73.9228 214.33 79.7192 219.826 85.4852C224.968 90.8805 230.085 96.2492 236.994 99.4496C251.06 105.992 265.275 98.8594 279.486 91.7288C287.066 87.9259 294.644 84.1235 302.198 82.3963C315.533 79.0072 329.656 80.7995 341.722 87.412C350.568 92.4548 357.278 99.903 363.985 107.348C369.218 113.157 374.45 118.964 380.694 123.625C386.246 127.747 392.317 131.12 398.75 133.656C391.43 114.531 381.286 96.6101 368.656 80.4903C364.91 77.2932 361.279 73.2542 357.581 69.141C347.413 57.8319 336.742 45.9627 321.809 49.4935C314.894 51.1364 308.594 54.795 302.274 58.4653C296.631 61.7424 290.972 65.0288 284.844 66.8979C272.752 70.8237 259.609 69.9067 248.179 64.3399ZM105.483 152.766C81.2076 157.932 57.0321 150.258 35.2641 140.227C33.8495 139.569 32.2276 138.84 30.4562 138.044L30.4557 138.044C25.8839 135.99 20.317 133.489 14.75 130.597C18.8367 120.318 23.7514 110.388 29.4459 100.904L29.6019 101.088L29.602 101.088L29.6021 101.089L29.6021 101.089L29.6022 101.089C31.5037 103.332 33.3628 105.525 35.3644 107.575C45.6859 118.698 58.9873 126.62 73.6842 130.396C104.538 137.672 129.6 124.231 155.508 110.335C157.817 109.096 160.134 107.854 162.462 106.622C176.054 99.4999 186.838 98.2961 199.577 108.879C202.094 111.033 204.263 113.608 206.453 116.208L206.453 116.209C209.108 119.361 211.796 122.551 215.176 125.08C221.226 129.513 228.173 132.57 235.529 134.034C242.885 135.498 250.473 135.335 257.759 133.556C265.804 131.841 273.674 127.973 281.532 124.111C292.977 118.487 304.397 112.874 316.292 113.945C329.536 115.137 338.168 124.59 346.993 134.255C351.536 139.231 356.131 144.263 361.433 148.252C375.42 158.632 391.601 165.666 408.731 168.816C410.703 179.446 411.86 190.211 412.192 201.017C407.122 200.777 402.085 200.072 397.145 198.91C383.235 195.599 372.386 188.576 361.842 181.751C346.038 171.521 330.921 161.736 307.214 165.556C285.045 169.168 268.643 171.274 247.578 162.196C241.442 159.555 235.441 156.608 229.436 153.659C220.271 149.158 211.099 144.654 201.433 141.23C174.883 131.774 154.847 138.115 132.451 145.204C123.962 147.891 115.134 150.685 105.483 152.766ZM86.8252 222.985C110.9 204.126 133.471 191.185 163.515 207.135C173.223 212.289 182.356 221.633 191.568 231.06C210.866 250.804 230.517 270.911 256.556 253.63C261.501 250.348 266.204 246.765 270.85 243.224C287.08 230.858 302.633 219.007 325.521 222.283C342.005 224.664 355.177 233.713 368.297 242.727C379.768 250.607 391.199 258.46 404.769 261.806C407.453 252.12 409.398 242.244 410.587 232.264C392.175 231.531 374.255 226.11 358.524 216.515C355.054 214.373 351.804 211.709 348.546 209.04C344.176 205.459 339.793 201.868 334.85 199.511C324.256 194.439 314.63 196.372 304.257 198.455L304.256 198.455L304.256 198.455L304.256 198.455L304.256 198.455L304.255 198.455C301.909 198.926 299.525 199.405 297.082 199.812C282.95 202.521 268.387 201.972 254.499 198.207C242.722 194.927 231.615 189.5 220.615 184.126C197.981 173.068 175.801 162.232 149.17 170.772C111.853 182.809 83.0132 191.135 44.2421 177.794C30.7675 173.222 17.5414 167.949 4.61832 161.994C2.18388 172.817 0.64058 183.822 0.00390625 194.897C7.26194 199.632 13.9444 205.589 20.472 211.408C40.1527 228.954 58.4262 245.244 86.8252 222.985ZM70.6244 304.343C73.5037 302.54 76.3201 300.709 79.0953 298.904C100.493 284.99 119.443 272.667 145.86 287.54C152.466 291.252 158.186 296.245 163.887 301.219L163.887 301.22C171.819 308.142 179.712 315.03 189.897 318.387C212.468 326.061 230.424 317.032 248.982 304.694C274.562 287.791 298.787 278.01 328.881 289.396C338.901 293.195 348.367 299.048 357.786 304.871C365.153 309.425 372.491 313.962 380.041 317.484C385.324 309.153 390.001 300.454 394.035 291.452C380.269 287.758 367.299 281.569 355.765 273.195C353.888 271.877 352.017 270.51 350.142 269.141L350.142 269.14L350.141 269.14L350.141 269.14L350.141 269.14L350.141 269.14C336.538 259.204 322.757 249.138 305.258 256.543C297.696 259.642 291.092 265.403 284.569 271.092L284.569 271.092C280.535 274.611 276.533 278.102 272.355 280.919C261.575 288.806 248.507 292.94 235.152 292.686C221.798 292.432 208.896 287.806 198.424 279.515C190.213 273.65 183.391 266.397 176.555 259.128C171.698 253.964 166.833 248.792 161.458 244.104C138.31 224.001 123.497 234.954 103.873 249.463C103.13 250.013 102.379 250.568 101.621 251.126C76.5429 269.634 46.4489 271.941 20.6182 253.584C13.7429 248.16 7.3645 242.134 1.55859 235.578C5.31474 263.044 14.6148 289.459 28.894 313.22C43.4145 315.239 58.1831 312.097 70.6244 304.343ZM77.9504 368.993C86.6638 361.174 97.0093 355.392 108.236 352.07C119.462 348.747 131.287 347.966 142.853 349.783C155.395 351.96 167.015 356.876 178.65 361.799L178.65 361.8L178.652 361.8C182.836 363.571 187.022 365.342 191.254 366.987C215.53 376.417 230.979 374.761 251.443 357.959C276.12 337.896 301.599 325.608 330.74 344.316C336.91 348.279 342.979 352.091 348.997 355.602C353.461 351.338 357.675 346.874 361.737 342.21C358.203 340.063 354.691 337.809 351.182 335.556C335.421 325.437 319.709 315.348 302.151 315.225C288.449 315.225 276.609 323.557 265.276 331.533C261.053 334.506 256.9 337.428 252.747 339.852C239.239 348.177 223.768 352.78 207.906 353.194C191.342 353.17 175.139 348.344 161.261 339.301C156.877 336.44 152.762 332.664 148.639 328.88C139.316 320.324 129.947 311.727 117.323 313.57C107.329 315.031 98.8668 321.345 90.3895 327.671C84.3172 332.201 78.2371 336.738 71.5805 339.501C65.39 341.955 58.9216 343.64 52.3203 344.517C60.1369 353.404 68.7126 361.594 77.9504 368.993ZM267.559 383.443C272.695 379.75 278.052 375.898 283.894 372.154C298.69 362.625 310.828 368.994 322.815 377.32C291.141 399.051 254.027 411.504 215.655 413.276C177.284 415.049 139.18 406.07 105.637 387.352C127.335 374.615 149.256 383.669 171.523 392.865C180.912 396.742 190.361 400.645 199.881 402.951C230.051 410.413 247.032 398.203 267.559 383.443Z" fill="#598989"/>
</svg>
