<svg width="24" height="24" viewBox="0 0 24 24" fill="none" xmlns="http://www.w3.org/2000/svg">
<path d="M3.5 21H6M9.5 21H21M3 14V5C3 3.89543 3.89543 3 5 3H19C20.1046 3 21 3.89543 21 5V14M3 14V15C3 16.1046 3.89543 17 5 17H19C20.1046 17 21 16.1046 21 15V14M3 14L5.58579 11.4142C6.36684 10.6332 7.63316 10.6332 8.41421 11.4142L8.58579 11.5858C9.36683 12.3668 10.6332 12.3668 11.4142 11.5858L13.5858 9.41421C14.3668 8.63316 15.6332 8.63316 16.4142 9.41421L21 14M11 7V7C11 7.55228 10.5523 8 10 8V8C9.44772 8 9 7.55228 9 7V7C9 6.44772 9.44772 6 10 6V6C10.5523 6 11 6.44772 11 7Z" stroke="#0B0C0E" stroke-width="1.4" stroke-linecap="round"/>
</svg>
