<svg width="24" height="24" viewBox="0 0 24 24" fill="none" xmlns="http://www.w3.org/2000/svg">
<path d="M3.5 21H6M10.5 21H21M14.7142 10.1715L10.3029 12.8183C10.1696 12.8982 10 12.8022 10 12.6468V7.35324C10 7.19778 10.1696 7.10176 10.3029 7.18174L14.7142 9.8285C14.8436 9.90618 14.8436 10.0938 14.7142 10.1715ZM19 3H5C3.89543 3 3 3.89543 3 5V15C3 16.1046 3.89543 17 5 17H19C20.1046 17 21 16.1046 21 15V5C21 3.89543 20.1046 3 19 3Z" stroke="#0B0C0E" stroke-width="1.4" stroke-linecap="round"/>
</svg>
