<svg width="24" height="24" viewBox="0 0 24 24" fill="none" xmlns="http://www.w3.org/2000/svg">
<path d="M12 5H5C3.89543 5 3 5.89543 3 7V17C3 18.1046 3.89543 19 5 19H12M12 5V8M12 5H15H17.8578M12 11V13M12 16V19M12 19H19C20.1046 19 21 18.1046 21 17V7C21 5.89543 20.1046 5 19 5H17.8578M6 10L8 9V15M10 15H6M18 8H15C17.5 7 18 5.5 17.8578 5M15 11H16C17.1046 11 18 11.8954 18 13V13.5M18 13.5H16M18 13.5V14C18 15.1046 17.1046 16 16 16H15" stroke="#0B0C0E" stroke-width="1.4" stroke-linecap="round" stroke-linejoin="round"/>
</svg>
