<svg width="24" height="24" viewBox="0 0 24 24" fill="none" xmlns="http://www.w3.org/2000/svg">
<path d="M20.7 13C20.7 12.6134 20.3866 12.3 20 12.3C19.6134 12.3 19.3 12.6134 19.3 13H20H20.7ZM12 21.7C12.3866 21.7 12.7 21.3866 12.7 21C12.7 20.6134 12.3866 20.3 12 20.3V21V21.7ZM17.1619 6.84817C16.8885 7.12154 16.8885 7.56475 17.1619 7.83812C17.4352 8.11149 17.8785 8.11149 18.1518 7.83812L17.6569 7.34315L17.1619 6.84817ZM19.495 6.49497C19.7683 6.22161 19.7683 5.77839 19.495 5.50503C19.2216 5.23166 18.7784 5.23166 18.505 5.50503L19 6L19.495 6.49497ZM10 2.3C9.6134 2.3 9.3 2.6134 9.3 3C9.3 3.3866 9.6134 3.7 10 3.7V3V2.3ZM14 3.7C14.3866 3.7 14.7 3.3866 14.7 3C14.7 2.6134 14.3866 2.3 14 2.3V3V3.7ZM18.7696 10.2627C18.9147 10.621 19.3228 10.7939 19.6811 10.6489C20.0395 10.5038 20.2124 10.0957 20.0673 9.73735L19.4185 10L18.7696 10.2627ZM19.2435 13.9134C19.1956 14.297 19.4679 14.6468 19.8515 14.6946C20.2351 14.7425 20.5849 14.4702 20.6327 14.0866L19.9381 14L19.2435 13.9134ZM17.8527 17.3638C17.6214 17.6735 17.6849 18.1122 17.9947 18.3435C18.3044 18.5749 18.743 18.5113 18.9744 18.2016L18.4136 17.7827L17.8527 17.3638ZM14.7373 19.7696C14.379 19.9147 14.2061 20.3228 14.3511 20.6811C14.4962 21.0395 14.9043 21.2124 15.2627 21.0673L15 20.4185L14.7373 19.7696ZM19.7075 17.0388C19.8872 16.6965 19.7554 16.2734 19.4131 16.0937C19.0709 15.914 18.6477 16.0458 18.468 16.3881L19.0878 16.7134L19.7075 17.0388ZM16.6899 20.3288C17.0154 20.1202 17.1101 19.6872 16.9014 19.3617C16.6927 19.0363 16.2597 18.9416 15.9343 19.1503L16.3121 19.7395L16.6899 20.3288ZM9.68695 10.3739C9.34117 10.5468 9.20101 10.9673 9.3739 11.313C9.54679 11.6588 9.96726 11.799 10.313 11.6261L10 11L9.68695 10.3739ZM12 10H12.7C12.7 9.7574 12.5744 9.53209 12.368 9.40454C12.1616 9.277 11.9039 9.26541 11.687 9.3739L12 10ZM14 16.7C14.3866 16.7 14.7 16.3866 14.7 16C14.7 15.6134 14.3866 15.3 14 15.3V16V16.7ZM10 15.3C9.6134 15.3 9.3 15.6134 9.3 16C9.3 16.3866 9.6134 16.7 10 16.7V16V15.3ZM12 21V20.3C7.96832 20.3 4.7 17.0317 4.7 13H4H3.3C3.3 17.8049 7.19512 21.7 12 21.7V21ZM4 13H4.7C4.7 8.96832 7.96832 5.7 12 5.7V5V4.3C7.19512 4.3 3.3 8.19512 3.3 13H4ZM17.6569 7.34315L18.1518 7.83812L19.495 6.49497L19 6L18.505 5.50503L17.1619 6.84817L17.6569 7.34315ZM10 3V3.7H12V3V2.3H10V3ZM12 3V3.7H14V3V2.3H12V3ZM12 3H11.3V5H12H12.7V3H12ZM12 5V5.7C15.0625 5.7 17.6862 7.58607 18.7696 10.2627L19.4185 10L20.0673 9.73735C18.7772 6.55027 15.6523 4.3 12 4.3V5ZM20 13H19.3C19.3 13.3096 19.2808 13.6145 19.2435 13.9134L19.9381 14L20.6327 14.0866C20.6772 13.7304 20.7 13.3677 20.7 13H20ZM19.0878 16.7134L18.468 16.3881C18.2884 16.7301 18.0824 17.0562 17.8527 17.3638L18.4136 17.7827L18.9744 18.2016C19.248 17.8353 19.4934 17.4467 19.7075 17.0388L19.0878 16.7134ZM16.3121 19.7395L15.9343 19.1503C15.5574 19.3919 15.157 19.5998 14.7373 19.7696L15 20.4185L15.2627 21.0673C15.7634 20.8646 16.2408 20.6168 16.6899 20.3288L16.3121 19.7395ZM10 11L10.313 11.6261L12.313 10.6261L12 10L11.687 9.3739L9.68695 10.3739L10 11ZM12 10H11.3V16H12H12.7V10H12ZM12 16V16.7H14V16V15.3H12V16ZM12 16V15.3H10V16V16.7H12V16Z" fill="#0B0C0E"/>
</svg>
