<svg width="24" height="24" viewBox="0 0 24 24" fill="none" xmlns="http://www.w3.org/2000/svg">
<path d="M12 3V7M12 10V14M12 17V21M8.44721 17.2764L4.44721 19.2764C3.78231 19.6088 3 19.1253 3 18.382V6.61803C3 5.87465 3.78231 5.39116 4.44721 5.72361L8.44721 7.72361C8.786 7.893 9 8.23926 9 8.61803V16.382C9 16.7607 8.786 17.107 8.44721 17.2764ZM15.5528 17.2764L19.5528 19.2764C20.2177 19.6088 21 19.1253 21 18.382V6.61803C21 5.87465 20.2177 5.39116 19.5528 5.72361L15.5528 7.72361C15.214 7.893 15 8.23926 15 8.61803V16.382C15 16.7607 15.214 17.107 15.5528 17.2764Z" stroke="#0B0C0E" stroke-width="1.4" stroke-linecap="round"/>
</svg>
