<svg width="24" height="24" viewBox="0 0 24 24" fill="none" xmlns="http://www.w3.org/2000/svg">
<path d="M5 8H16C17.1046 8 18 8.89543 18 10V14M5 8V8C3.89543 8 3 8.89543 3 10V19M5 8L15.1966 3.75141C16.1994 3.3336 17.3523 3.79261 17.7935 4.78529L20.3151 10.459C20.7108 11.3492 20.4075 12.395 19.5969 12.9354L18 14M18 14V19M3 19V19C3 20.1046 3.89543 21 5 21H16C17.1046 21 18 20.1046 18 19V19M3 19L5.42031 16.5797C5.75738 16.2426 6.2855 16.1903 6.68212 16.4547L8.31788 17.5453C8.7145 17.8097 9.24262 17.7574 9.57969 17.4203L12.2929 14.7071C12.6834 14.3166 13.3166 14.3166 13.7071 14.7071L18 19M9 12V12C9 12.5523 8.55228 13 8 13V13C7.44772 13 7 12.5523 7 12V12C7 11.4477 7.44772 11 8 11V11C8.55228 11 9 11.4477 9 12Z" stroke="#0B0C0E" stroke-width="1.4" stroke-linecap="round"/>
</svg>
