<svg width="24" height="24" viewBox="0 0 24 24" fill="none" xmlns="http://www.w3.org/2000/svg">
<path d="M18 6H19C20.1046 6 21 6.89543 21 8V16C21 17.1046 20.1046 18 19 18H18M6 6H5C3.89543 6 3 6.89543 3 8V16C3 17.1046 3.89543 18 5 18H6M13.5 6H12M10.5 10H12M12 5V6M12 6H11.5C10.9477 6 10.5 6.44772 10.5 7V7C10.5 7.55228 10.9477 8 11.5 8H12H12.5C13.0523 8 13.5 8.44772 13.5 9V9C13.5 9.55228 13.0523 10 12.5 10H12M12 10V11M10 14H14M9 16H15M11 19H13M18 5V19C18 20.1046 17.1046 21 16 21H8C6.89543 21 6 20.1046 6 19V5C6 3.89543 6.89543 3 8 3H16C17.1046 3 18 3.89543 18 5Z" stroke="#0B0C0E" stroke-width="1.4" stroke-linecap="round"/>
</svg>
