<svg width="24" height="24" viewBox="0 0 24 24" fill="none" xmlns="http://www.w3.org/2000/svg">
<path d="M15 7L9 10.5M15 17L9 13.5M20 18.5V18.5C20 19.8807 18.8807 21 17.5 21V21C16.1193 21 15 19.8807 15 18.5V18.5C15 17.1193 16.1193 16 17.5 16V16C18.8807 16 20 17.1193 20 18.5ZM20 5.5V5.5C20 6.88071 18.8807 8 17.5 8V8C16.1193 8 15 6.88071 15 5.5V5.5C15 4.11929 16.1193 3 17.5 3V3C18.8807 3 20 4.11929 20 5.5ZM9 12V12C9 13.3807 7.88071 14.5 6.5 14.5V14.5C5.11929 14.5 4 13.3807 4 12V12C4 10.6193 5.11929 9.5 6.5 9.5V9.5C7.88071 9.5 9 10.6193 9 12Z" stroke="#0B0C0E" stroke-width="1.4" stroke-linecap="round"/>
</svg>
