<svg width="24" height="24" viewBox="0 0 24 24" fill="none" xmlns="http://www.w3.org/2000/svg">
<path d="M6 12H16M6 15H18M6 6H7M9 6H10M12 6H13M13.4063 18.8906L12.416 20.376C12.2181 20.6728 11.7819 20.6728 11.584 20.376L10.5937 18.8906C10.2228 18.3342 9.59834 18 8.92963 18H5C3.89543 18 3 17.1046 3 16V5C3 3.89543 3.89543 3 5 3H19C20.1046 3 21 3.89543 21 5V16C21 17.1046 20.1046 18 19 18H15.0704C14.4017 18 13.7772 18.3342 13.4063 18.8906Z" stroke="#0B0C0E" stroke-width="1.4" stroke-linecap="round"/>
</svg>
